<svg class="rich-terminal" viewBox="0 0 2922 1318.8" xmlns="http://www.w3.org/2000/svg">
    <!-- Generated with Rich https://www.textualize.io -->
    <style>

    @font-face {
        font-family: "Fira Code";
        src: local("FiraCode-Regular"),
                url("https://cdnjs.cloudflare.com/ajax/libs/firacode/6.2.0/woff2/FiraCode-Regular.woff2") format("woff2"),
                url("https://cdnjs.cloudflare.com/ajax/libs/firacode/6.2.0/woff/FiraCode-Regular.woff") format("woff");
        font-style: normal;
        font-weight: 400;
    }
    @font-face {
        font-family: "Fira Code";
        src: local("FiraCode-Bold"),
                url("https://cdnjs.cloudflare.com/ajax/libs/firacode/6.2.0/woff2/FiraCode-Bold.woff2") format("woff2"),
                url("https://cdnjs.cloudflare.com/ajax/libs/firacode/6.2.0/woff/FiraCode-Bold.woff") format("woff");
        font-style: bold;
        font-weight: 700;
    }

    .terminal-2862992888-matrix {
        font-family: Fira Code, monospace;
        font-size: 20px;
        line-height: 24.4px;
        font-variant-east-asian: full-width;
    }

    .terminal-2862992888-title {
        font-size: 18px;
        font-weight: bold;
        font-family: arial;
    }

    .terminal-2862992888-r1 { fill: #c5c8c6 }
.terminal-2862992888-r2 { fill: #e3e3e3 }
.terminal-2862992888-r3 { fill: #121212 }
.terminal-2862992888-r4 { fill: #ddedf9 }
.terminal-2862992888-r5 { fill: #e2e2e2 }
.terminal-2862992888-r6 { fill: #7ae998 }
.terminal-2862992888-r7 { fill: #0a180e;font-weight: bold }
.terminal-2862992888-r8 { fill: #008139 }
.terminal-2862992888-r9 { fill: #1e1e1e }
.terminal-2862992888-r10 { fill: #787878 }
.terminal-2862992888-r11 { fill: #a8a8a8 }
.terminal-2862992888-r12 { fill: #e1e1e1 }
.terminal-2862992888-r13 { fill: #e2e3e3 }
.terminal-2862992888-r14 { fill: #4c5055 }
.terminal-2862992888-r15 { fill: #fea62b;font-weight: bold }
.terminal-2862992888-r16 { fill: #a7a9ab }
    </style>

    <defs>
    <clipPath id="terminal-2862992888-clip-terminal">
      <rect x="0" y="0" width="2902.6" height="1267.8" />
    </clipPath>
    <clipPath id="terminal-2862992888-line-0">
    <rect x="0" y="1.5" width="2903.6" height="24.65"/>
            </clipPath>
<clipPath id="terminal-2862992888-line-1">
    <rect x="0" y="25.9" width="2903.6" height="24.65"/>
            </clipPath>
<clipPath id="terminal-2862992888-line-2">
    <rect x="0" y="50.3" width="2903.6" height="24.65"/>
            </clipPath>
<clipPath id="terminal-2862992888-line-3">
    <rect x="0" y="74.7" width="2903.6" height="24.65"/>
            </clipPath>
<clipPath id="terminal-2862992888-line-4">
    <rect x="0" y="99.1" width="2903.6" height="24.65"/>
            </clipPath>
<clipPath id="terminal-2862992888-line-5">
    <rect x="0" y="123.5" width="2903.6" height="24.65"/>
            </clipPath>
<clipPath id="terminal-2862992888-line-6">
    <rect x="0" y="147.9" width="2903.6" height="24.65"/>
            </clipPath>
<clipPath id="terminal-2862992888-line-7">
    <rect x="0" y="172.3" width="2903.6" height="24.65"/>
            </clipPath>
<clipPath id="terminal-2862992888-line-8">
    <rect x="0" y="196.7" width="2903.6" height="24.65"/>
            </clipPath>
<clipPath id="terminal-2862992888-line-9">
    <rect x="0" y="221.1" width="2903.6" height="24.65"/>
            </clipPath>
<clipPath id="terminal-2862992888-line-10">
    <rect x="0" y="245.5" width="2903.6" height="24.65"/>
            </clipPath>
<clipPath id="terminal-2862992888-line-11">
    <rect x="0" y="269.9" width="2903.6" height="24.65"/>
            </clipPath>
<clipPath id="terminal-2862992888-line-12">
    <rect x="0" y="294.3" width="2903.6" height="24.65"/>
            </clipPath>
<clipPath id="terminal-2862992888-line-13">
    <rect x="0" y="318.7" width="2903.6" height="24.65"/>
            </clipPath>
<clipPath id="terminal-2862992888-line-14">
    <rect x="0" y="343.1" width="2903.6" height="24.65"/>
            </clipPath>
<clipPath id="terminal-2862992888-line-15">
    <rect x="0" y="367.5" width="2903.6" height="24.65"/>
            </clipPath>
<clipPath id="terminal-2862992888-line-16">
    <rect x="0" y="391.9" width="2903.6" height="24.65"/>
            </clipPath>
<clipPath id="terminal-2862992888-line-17">
    <rect x="0" y="416.3" width="2903.6" height="24.65"/>
            </clipPath>
<clipPath id="terminal-2862992888-line-18">
    <rect x="0" y="440.7" width="2903.6" height="24.65"/>
            </clipPath>
<clipPath id="terminal-2862992888-line-19">
    <rect x="0" y="465.1" width="2903.6" height="24.65"/>
            </clipPath>
<clipPath id="terminal-2862992888-line-20">
    <rect x="0" y="489.5" width="2903.6" height="24.65"/>
            </clipPath>
<clipPath id="terminal-2862992888-line-21">
    <rect x="0" y="513.9" width="2903.6" height="24.65"/>
            </clipPath>
<clipPath id="terminal-2862992888-line-22">
    <rect x="0" y="538.3" width="2903.6" height="24.65"/>
            </clipPath>
<clipPath id="terminal-2862992888-line-23">
    <rect x="0" y="562.7" width="2903.6" height="24.65"/>
            </clipPath>
<clipPath id="terminal-2862992888-line-24">
    <rect x="0" y="587.1" width="2903.6" height="24.65"/>
            </clipPath>
<clipPath id="terminal-2862992888-line-25">
    <rect x="0" y="611.5" width="2903.6" height="24.65"/>
            </clipPath>
<clipPath id="terminal-2862992888-line-26">
    <rect x="0" y="635.9" width="2903.6" height="24.65"/>
            </clipPath>
<clipPath id="terminal-2862992888-line-27">
    <rect x="0" y="660.3" width="2903.6" height="24.65"/>
            </clipPath>
<clipPath id="terminal-2862992888-line-28">
    <rect x="0" y="684.7" width="2903.6" height="24.65"/>
            </clipPath>
<clipPath id="terminal-2862992888-line-29">
    <rect x="0" y="709.1" width="2903.6" height="24.65"/>
            </clipPath>
<clipPath id="terminal-2862992888-line-30">
    <rect x="0" y="733.5" width="2903.6" height="24.65"/>
            </clipPath>
<clipPath id="terminal-2862992888-line-31">
    <rect x="0" y="757.9" width="2903.6" height="24.65"/>
            </clipPath>
<clipPath id="terminal-2862992888-line-32">
    <rect x="0" y="782.3" width="2903.6" height="24.65"/>
            </clipPath>
<clipPath id="terminal-2862992888-line-33">
    <rect x="0" y="806.7" width="2903.6" height="24.65"/>
            </clipPath>
<clipPath id="terminal-2862992888-line-34">
    <rect x="0" y="831.1" width="2903.6" height="24.65"/>
            </clipPath>
<clipPath id="terminal-2862992888-line-35">
    <rect x="0" y="855.5" width="2903.6" height="24.65"/>
            </clipPath>
<clipPath id="terminal-2862992888-line-36">
    <rect x="0" y="879.9" width="2903.6" height="24.65"/>
            </clipPath>
<clipPath id="terminal-2862992888-line-37">
    <rect x="0" y="904.3" width="2903.6" height="24.65"/>
            </clipPath>
<clipPath id="terminal-2862992888-line-38">
    <rect x="0" y="928.7" width="2903.6" height="24.65"/>
            </clipPath>
<clipPath id="terminal-2862992888-line-39">
    <rect x="0" y="953.1" width="2903.6" height="24.65"/>
            </clipPath>
<clipPath id="terminal-2862992888-line-40">
    <rect x="0" y="977.5" width="2903.6" height="24.65"/>
            </clipPath>
<clipPath id="terminal-2862992888-line-41">
    <rect x="0" y="1001.9" width="2903.6" height="24.65"/>
            </clipPath>
<clipPath id="terminal-2862992888-line-42">
    <rect x="0" y="1026.3" width="2903.6" height="24.65"/>
            </clipPath>
<clipPath id="terminal-2862992888-line-43">
    <rect x="0" y="1050.7" width="2903.6" height="24.65"/>
            </clipPath>
<clipPath id="terminal-2862992888-line-44">
    <rect x="0" y="1075.1" width="2903.6" height="24.65"/>
            </clipPath>
<clipPath id="terminal-2862992888-line-45">
    <rect x="0" y="1099.5" width="2903.6" height="24.65"/>
            </clipPath>
<clipPath id="terminal-2862992888-line-46">
    <rect x="0" y="1123.9" width="2903.6" height="24.65"/>
            </clipPath>
<clipPath id="terminal-2862992888-line-47">
    <rect x="0" y="1148.3" width="2903.6" height="24.65"/>
            </clipPath>
<clipPath id="terminal-2862992888-line-48">
    <rect x="0" y="1172.7" width="2903.6" height="24.65"/>
            </clipPath>
<clipPath id="terminal-2862992888-line-49">
    <rect x="0" y="1197.1" width="2903.6" height="24.65"/>
            </clipPath>
<clipPath id="terminal-2862992888-line-50">
    <rect x="0" y="1221.5" width="2903.6" height="24.65"/>
            </clipPath>
    </defs>

    <rect fill="#292929" stroke="rgba(255,255,255,0.35)" stroke-width="1" x="1" y="1" width="2920" height="1316.8" rx="8"/><text class="terminal-2862992888-title" fill="#c5c8c6" text-anchor="middle" x="1460" y="27">ConceptC2Server</text>
            <g transform="translate(26,22)">
            <circle cx="0" cy="0" r="7" fill="#ff5f57"/>
            <circle cx="22" cy="0" r="7" fill="#febc2e"/>
            <circle cx="44" cy="0" r="7" fill="#28c840"/>
            </g>
        
    <g transform="translate(9, 41)" clip-path="url(#terminal-2862992888-clip-terminal)">
    <rect fill="#282828" x="0" y="1.5" width="12.2" height="24.65" shape-rendering="crispEdges"/><rect fill="#282828" x="12.2" y="1.5" width="12.2" height="24.65" shape-rendering="crispEdges"/><rect fill="#282828" x="24.4" y="1.5" width="61" height="24.65" shape-rendering="crispEdges"/><rect fill="#282828" x="85.4" y="1.5" width="12.2" height="24.65" shape-rendering="crispEdges"/><rect fill="#282828" x="97.6" y="1.5" width="1244.4" height="24.65" shape-rendering="crispEdges"/><rect fill="#282828" x="1342" y="1.5" width="183" height="24.65" shape-rendering="crispEdges"/><rect fill="#282828" x="1525" y="1.5" width="1256.6" height="24.65" shape-rendering="crispEdges"/><rect fill="#282828" x="2781.6" y="1.5" width="12.2" height="24.65" shape-rendering="crispEdges"/><rect fill="#282828" x="2793.8" y="1.5" width="0" height="24.65" shape-rendering="crispEdges"/><rect fill="#282828" x="2793.8" y="1.5" width="97.6" height="24.65" shape-rendering="crispEdges"/><rect fill="#282828" x="2891.4" y="1.5" width="12.2" height="24.65" shape-rendering="crispEdges"/><rect fill="#262626" x="0" y="25.9" width="2903.6" height="24.65" shape-rendering="crispEdges"/><rect fill="#262626" x="0" y="50.3" width="12.2" height="24.65" shape-rendering="crispEdges"/><rect fill="#0178d4" x="12.2" y="50.3" width="12.2" height="24.65" shape-rendering="crispEdges"/><rect fill="#0178d4" x="24.4" y="50.3" width="256.2" height="24.65" shape-rendering="crispEdges"/><rect fill="#0178d4" x="280.6" y="50.3" width="12.2" height="24.65" shape-rendering="crispEdges"/><rect fill="#262626" x="292.8" y="50.3" width="2610.8" height="24.65" shape-rendering="crispEdges"/><rect fill="#262626" x="0" y="74.7" width="12.2" height="24.65" shape-rendering="crispEdges"/><rect fill="#262626" x="12.2" y="74.7" width="2891.4" height="24.65" shape-rendering="crispEdges"/><rect fill="#262626" x="0" y="99.1" width="12.2" height="24.65" shape-rendering="crispEdges"/><rect fill="#262626" x="12.2" y="99.1" width="36.6" height="24.65" shape-rendering="crispEdges"/><rect fill="#262626" x="48.8" y="99.1" width="2147.2" height="24.65" shape-rendering="crispEdges"/><rect fill="#262626" x="2196" y="99.1" width="707.6" height="24.65" shape-rendering="crispEdges"/><rect fill="#262626" x="0" y="123.5" width="12.2" height="24.65" shape-rendering="crispEdges"/><rect fill="#262626" x="12.2" y="123.5" width="36.6" height="24.65" shape-rendering="crispEdges"/><rect fill="#4ebf71" x="48.8" y="123.5" width="195.2" height="24.65" shape-rendering="crispEdges"/><rect fill="#262626" x="244" y="123.5" width="2659.6" height="24.65" shape-rendering="crispEdges"/><rect fill="#262626" x="0" y="147.9" width="12.2" height="24.65" shape-rendering="crispEdges"/><rect fill="#262626" x="12.2" y="147.9" width="36.6" height="24.65" shape-rendering="crispEdges"/><rect fill="#4ebf71" x="48.8" y="147.9" width="36.6" height="24.65" shape-rendering="crispEdges"/><rect fill="#4ebf71" x="85.4" y="147.9" width="12.2" height="24.65" shape-rendering="crispEdges"/><rect fill="#4ebf71" x="97.6" y="147.9" width="97.6" height="24.65" shape-rendering="crispEdges"/><rect fill="#4ebf71" x="195.2" y="147.9" width="12.2" height="24.65" shape-rendering="crispEdges"/><rect fill="#4ebf71" x="207.4" y="147.9" width="36.6" height="24.65" shape-rendering="crispEdges"/><rect fill="#262626" x="244" y="147.9" width="2659.6" height="24.65" shape-rendering="crispEdges"/><rect fill="#262626" x="0" y="172.3" width="12.2" height="24.65" shape-rendering="crispEdges"/><rect fill="#262626" x="12.2" y="172.3" width="36.6" height="24.65" shape-rendering="crispEdges"/><rect fill="#4ebf71" x="48.8" y="172.3" width="195.2" height="24.65" shape-rendering="crispEdges"/><rect fill="#262626" x="244" y="172.3" width="2659.6" height="24.65" shape-rendering="crispEdges"/><rect fill="#262626" x="0" y="196.7" width="2903.6" height="24.65" shape-rendering="crispEdges"/><rect fill="#1e1e1e" x="0" y="221.1" width="12.2" height="24.65" shape-rendering="crispEdges"/><rect fill="#262626" x="12.2" y="221.1" width="2879.2" height="24.65" shape-rendering="crispEdges"/><rect fill="#1e1e1e" x="2891.4" y="221.1" width="12.2" height="24.65" shape-rendering="crispEdges"/><rect fill="#1e1e1e" x="0" y="245.5" width="12.2" height="24.65" shape-rendering="crispEdges"/><rect fill="#262626" x="12.2" y="245.5" width="24.4" height="24.65" shape-rendering="crispEdges"/><rect fill="#262626" x="36.6" y="245.5" width="85.4" height="24.65" shape-rendering="crispEdges"/><rect fill="#262626" x="122" y="245.5" width="2720.6" height="24.65" shape-rendering="crispEdges"/><rect fill="#262626" x="2842.6" y="245.5" width="12.2" height="24.65" shape-rendering="crispEdges"/><rect fill="#262626" x="2854.8" y="245.5" width="12.2" height="24.65" shape-rendering="crispEdges"/><rect fill="#262626" x="2867" y="245.5" width="24.4" height="24.65" shape-rendering="crispEdges"/><rect fill="#1e1e1e" x="2891.4" y="245.5" width="12.2" height="24.65" shape-rendering="crispEdges"/><rect fill="#1e1e1e" x="0" y="269.9" width="12.2" height="24.65" shape-rendering="crispEdges"/><rect fill="#262626" x="12.2" y="269.9" width="2879.2" height="24.65" shape-rendering="crispEdges"/><rect fill="#1e1e1e" x="2891.4" y="269.9" width="12.2" height="24.65" shape-rendering="crispEdges"/><rect fill="#121212" x="0" y="294.3" width="12.2" height="24.65" shape-rendering="crispEdges"/><rect fill="#262626" x="12.2" y="294.3" width="2879.2" height="24.65" shape-rendering="crispEdges"/><rect fill="#1e1e1e" x="2891.4" y="294.3" width="12.2" height="24.65" shape-rendering="crispEdges"/><rect fill="#121212" x="0" y="318.7" width="12.2" height="24.65" shape-rendering="crispEdges"/><rect fill="#262626" x="12.2" y="318.7" width="24.4" height="24.65" shape-rendering="crispEdges"/><rect fill="#262626" x="36.6" y="318.7" width="97.6" height="24.65" shape-rendering="crispEdges"/><rect fill="#262626" x="134.2" y="318.7" width="2732.8" height="24.65" shape-rendering="crispEdges"/><rect fill="#262626" x="2867" y="318.7" width="24.4" height="24.65" shape-rendering="crispEdges"/><rect fill="#1e1e1e" x="2891.4" y="318.7" width="12.2" height="24.65" shape-rendering="crispEdges"/><rect fill="#121212" x="0" y="343.1" width="12.2" height="24.65" shape-rendering="crispEdges"/><rect fill="#262626" x="12.2" y="343.1" width="2879.2" height="24.65" shape-rendering="crispEdges"/><rect fill="#1e1e1e" x="2891.4" y="343.1" width="12.2" height="24.65" shape-rendering="crispEdges"/><rect fill="#1e1e1e" x="0" y="367.5" width="2903.6" height="24.65" shape-rendering="crispEdges"/><rect fill="#1e1e1e" x="0" y="391.9" width="2903.6" height="24.65" shape-rendering="crispEdges"/><rect fill="#1e1e1e" x="0" y="416.3" width="2903.6" height="24.65" shape-rendering="crispEdges"/><rect fill="#1e1e1e" x="0" y="440.7" width="2903.6" height="24.65" shape-rendering="crispEdges"/><rect fill="#1e1e1e" x="0" y="465.1" width="2903.6" height="24.65" shape-rendering="crispEdges"/><rect fill="#1e1e1e" x="0" y="489.5" width="2903.6" height="24.65" shape-rendering="crispEdges"/><rect fill="#1e1e1e" x="0" y="513.9" width="2903.6" height="24.65" shape-rendering="crispEdges"/><rect fill="#1e1e1e" x="0" y="538.3" width="2903.6" height="24.65" shape-rendering="crispEdges"/><rect fill="#1e1e1e" x="0" y="562.7" width="2903.6" height="24.65" shape-rendering="crispEdges"/><rect fill="#1e1e1e" x="0" y="587.1" width="2903.6" height="24.65" shape-rendering="crispEdges"/><rect fill="#1e1e1e" x="0" y="611.5" width="2903.6" height="24.65" shape-rendering="crispEdges"/><rect fill="#1e1e1e" x="0" y="635.9" width="2903.6" height="24.65" shape-rendering="crispEdges"/><rect fill="#1e1e1e" x="0" y="660.3" width="2903.6" height="24.65" shape-rendering="crispEdges"/><rect fill="#1e1e1e" x="0" y="684.7" width="2903.6" height="24.65" shape-rendering="crispEdges"/><rect fill="#1e1e1e" x="0" y="709.1" width="2903.6" height="24.65" shape-rendering="crispEdges"/><rect fill="#1e1e1e" x="0" y="733.5" width="2903.6" height="24.65" shape-rendering="crispEdges"/><rect fill="#1e1e1e" x="0" y="757.9" width="2903.6" height="24.65" shape-rendering="crispEdges"/><rect fill="#1e1e1e" x="0" y="782.3" width="2903.6" height="24.65" shape-rendering="crispEdges"/><rect fill="#1e1e1e" x="0" y="806.7" width="2903.6" height="24.65" shape-rendering="crispEdges"/><rect fill="#1e1e1e" x="0" y="831.1" width="2903.6" height="24.65" shape-rendering="crispEdges"/><rect fill="#1e1e1e" x="0" y="855.5" width="2903.6" height="24.65" shape-rendering="crispEdges"/><rect fill="#1e1e1e" x="0" y="879.9" width="2903.6" height="24.65" shape-rendering="crispEdges"/><rect fill="#1e1e1e" x="0" y="904.3" width="2903.6" height="24.65" shape-rendering="crispEdges"/><rect fill="#1e1e1e" x="0" y="928.7" width="2903.6" height="24.65" shape-rendering="crispEdges"/><rect fill="#1e1e1e" x="0" y="953.1" width="2903.6" height="24.65" shape-rendering="crispEdges"/><rect fill="#1e1e1e" x="0" y="977.5" width="2903.6" height="24.65" shape-rendering="crispEdges"/><rect fill="#1e1e1e" x="0" y="1001.9" width="2903.6" height="24.65" shape-rendering="crispEdges"/><rect fill="#1e1e1e" x="0" y="1026.3" width="2903.6" height="24.65" shape-rendering="crispEdges"/><rect fill="#1e1e1e" x="0" y="1050.7" width="2903.6" height="24.65" shape-rendering="crispEdges"/><rect fill="#1e1e1e" x="0" y="1075.1" width="2903.6" height="24.65" shape-rendering="crispEdges"/><rect fill="#1e1e1e" x="0" y="1099.5" width="2903.6" height="24.65" shape-rendering="crispEdges"/><rect fill="#1e1e1e" x="0" y="1123.9" width="2903.6" height="24.65" shape-rendering="crispEdges"/><rect fill="#1e1e1e" x="0" y="1148.3" width="2903.6" height="24.65" shape-rendering="crispEdges"/><rect fill="#1e1e1e" x="0" y="1172.7" width="2903.6" height="24.65" shape-rendering="crispEdges"/><rect fill="#1e1e1e" x="0" y="1197.1" width="2903.6" height="24.65" shape-rendering="crispEdges"/><rect fill="#1e1e1e" x="0" y="1221.5" width="2903.6" height="24.65" shape-rendering="crispEdges"/><rect fill="#24292f" x="0" y="1245.9" width="2757.2" height="24.65" shape-rendering="crispEdges"/><rect fill="#24292f" x="2757.2" y="1245.9" width="12.2" height="24.65" shape-rendering="crispEdges"/><rect fill="#24292f" x="2769.4" y="1245.9" width="24.4" height="24.65" shape-rendering="crispEdges"/><rect fill="#24292f" x="2793.8" y="1245.9" width="97.6" height="24.65" shape-rendering="crispEdges"/><rect fill="#24292f" x="2891.4" y="1245.9" width="12.2" height="24.65" shape-rendering="crispEdges"/>
    <g class="terminal-2862992888-matrix">
    <text class="terminal-2862992888-r2" x="12.2" y="20" textLength="12.2" clip-path="url(#terminal-2862992888-line-0)">⭘</text><text class="terminal-2862992888-r2" x="1342" y="20" textLength="183" clip-path="url(#terminal-2862992888-line-0)">ConceptC2Server</text><text class="terminal-2862992888-r1" x="2903.6" y="20" textLength="12.2" clip-path="url(#terminal-2862992888-line-0)">
</text><text class="terminal-2862992888-r3" x="0" y="44.4" textLength="2903.6" clip-path="url(#terminal-2862992888-line-1)">▔▔▔▔▔▔▔▔▔▔▔▔▔▔▔▔▔▔▔▔▔▔▔▔▔▔▔▔▔▔▔▔▔▔▔▔▔▔▔▔▔▔▔▔▔▔▔▔▔▔▔▔▔▔▔▔▔▔▔▔▔▔▔▔▔▔▔▔▔▔▔▔▔▔▔▔▔▔▔▔▔▔▔▔▔▔▔▔▔▔▔▔▔▔▔▔▔▔▔▔▔▔▔▔▔▔▔▔▔▔▔▔▔▔▔▔▔▔▔▔▔▔▔▔▔▔▔▔▔▔▔▔▔▔▔▔▔▔▔▔▔▔▔▔▔▔▔▔▔▔▔▔▔▔▔▔▔▔▔▔▔▔▔▔▔▔▔▔▔▔▔▔▔▔▔▔▔▔▔▔▔▔▔▔▔▔▔▔▔▔▔▔▔▔▔▔▔▔▔▔▔▔▔▔▔▔▔▔▔▔▔▔▔▔▔▔▔▔▔▔▔▔▔▔▔▔▔▔▔▔▔▔▔▔▔▔▔▔</text><text class="terminal-2862992888-r1" x="2903.6" y="44.4" textLength="12.2" clip-path="url(#terminal-2862992888-line-1)">
</text><text class="terminal-2862992888-r4" x="24.4" y="68.8" textLength="256.2" clip-path="url(#terminal-2862992888-line-2)">▼&#160;Refresh&#160;OAuth&#160;token</text><text class="terminal-2862992888-r1" x="2903.6" y="68.8" textLength="12.2" clip-path="url(#terminal-2862992888-line-2)">
</text><text class="terminal-2862992888-r1" x="2903.6" y="93.2" textLength="12.2" clip-path="url(#terminal-2862992888-line-3)">
</text><text class="terminal-2862992888-r5" x="48.8" y="117.6" textLength="2147.2" clip-path="url(#terminal-2862992888-line-4)">You&#160;should&#160;refresh&#160;the&#160;OAuth&#160;API,&#160;for&#160;that&#160;click&#160;the&#160;button&#160;bellow&#160;and&#160;confirm&#160;access&#160;to&#160;your&#160;Strava&#160;account.&#160;Once&#160;validated,&#160;you&#160;can&#160;close&#160;the&#160;running&#160;Flask&#160;server&#160;with&#160;Ctrl+C</text><text class="terminal-2862992888-r1" x="2903.6" y="117.6" textLength="12.2" clip-path="url(#terminal-2862992888-line-4)">
</text><text class="terminal-2862992888-r6" x="48.8" y="142" textLength="195.2" clip-path="url(#terminal-2862992888-line-5)">▔▔▔▔▔▔▔▔▔▔▔▔▔▔▔▔</text><text class="terminal-2862992888-r1" x="2903.6" y="142" textLength="12.2" clip-path="url(#terminal-2862992888-line-5)">
</text><text class="terminal-2862992888-r7" x="97.6" y="166.4" textLength="97.6" clip-path="url(#terminal-2862992888-line-6)">Refresh!</text><text class="terminal-2862992888-r1" x="2903.6" y="166.4" textLength="12.2" clip-path="url(#terminal-2862992888-line-6)">
</text><text class="terminal-2862992888-r8" x="48.8" y="190.8" textLength="195.2" clip-path="url(#terminal-2862992888-line-7)">▁▁▁▁▁▁▁▁▁▁▁▁▁▁▁▁</text><text class="terminal-2862992888-r1" x="2903.6" y="190.8" textLength="12.2" clip-path="url(#terminal-2862992888-line-7)">
</text><text class="terminal-2862992888-r1" x="2903.6" y="215.2" textLength="12.2" clip-path="url(#terminal-2862992888-line-8)">
</text><text class="terminal-2862992888-r9" x="0" y="239.6" textLength="12.2" clip-path="url(#terminal-2862992888-line-9)">▊</text><text class="terminal-2862992888-r9" x="12.2" y="239.6" textLength="2879.2" clip-path="url(#terminal-2862992888-line-9)">▔▔▔▔▔▔▔▔▔▔▔▔▔▔▔▔▔▔▔▔▔▔▔▔▔▔▔▔▔▔▔▔▔▔▔▔▔▔▔▔▔▔▔▔▔▔▔▔▔▔▔▔▔▔▔▔▔▔▔▔▔▔▔▔▔▔▔▔▔▔▔▔▔▔▔▔▔▔▔▔▔▔▔▔▔▔▔▔▔▔▔▔▔▔▔▔▔▔▔▔▔▔▔▔▔▔▔▔▔▔▔▔▔▔▔▔▔▔▔▔▔▔▔▔▔▔▔▔▔▔▔▔▔▔▔▔▔▔▔▔▔▔▔▔▔▔▔▔▔▔▔▔▔▔▔▔▔▔▔▔▔▔▔▔▔▔▔▔▔▔▔▔▔▔▔▔▔▔▔▔▔▔▔▔▔▔▔▔▔▔▔▔▔▔▔▔▔▔▔▔▔▔▔▔▔▔▔▔▔▔▔▔▔▔▔▔▔▔▔▔▔▔▔▔▔▔▔▔▔▔▔▔▔▔▔▔</text><text class="terminal-2862992888-r9" x="2891.4" y="239.6" textLength="12.2" clip-path="url(#terminal-2862992888-line-9)">▎</text><text class="terminal-2862992888-r1" x="2903.6" y="239.6" textLength="12.2" clip-path="url(#terminal-2862992888-line-9)">
</text><text class="terminal-2862992888-r9" x="0" y="264" textLength="12.2" clip-path="url(#terminal-2862992888-line-10)">▊</text><text class="terminal-2862992888-r10" x="36.6" y="264" textLength="85.4" clip-path="url(#terminal-2862992888-line-10)">Machine</text><text class="terminal-2862992888-r11" x="2854.8" y="264" textLength="12.2" clip-path="url(#terminal-2862992888-line-10)">▼</text><text class="terminal-2862992888-r9" x="2891.4" y="264" textLength="12.2" clip-path="url(#terminal-2862992888-line-10)">▎</text><text class="terminal-2862992888-r1" x="2903.6" y="264" textLength="12.2" clip-path="url(#terminal-2862992888-line-10)">
</text><text class="terminal-2862992888-r9" x="0" y="288.4" textLength="12.2" clip-path="url(#terminal-2862992888-line-11)">▊</text><text class="terminal-2862992888-r9" x="12.2" y="288.4" textLength="2879.2" clip-path="url(#terminal-2862992888-line-11)">▁▁▁▁▁▁▁▁▁▁▁▁▁▁▁▁▁▁▁▁▁▁▁▁▁▁▁▁▁▁▁▁▁▁▁▁▁▁▁▁▁▁▁▁▁▁▁▁▁▁▁▁▁▁▁▁▁▁▁▁▁▁▁▁▁▁▁▁▁▁▁▁▁▁▁▁▁▁▁▁▁▁▁▁▁▁▁▁▁▁▁▁▁▁▁▁▁▁▁▁▁▁▁▁▁▁▁▁▁▁▁▁▁▁▁▁▁▁▁▁▁▁▁▁▁▁▁▁▁▁▁▁▁▁▁▁▁▁▁▁▁▁▁▁▁▁▁▁▁▁▁▁▁▁▁▁▁▁▁▁▁▁▁▁▁▁▁▁▁▁▁▁▁▁▁▁▁▁▁▁▁▁▁▁▁▁▁▁▁▁▁▁▁▁▁▁▁▁▁▁▁▁▁▁▁▁▁▁▁▁▁▁▁▁▁▁▁▁▁▁▁▁▁▁▁▁▁▁▁▁▁▁▁▁▁▁</text><text class="terminal-2862992888-r9" x="2891.4" y="288.4" textLength="12.2" clip-path="url(#terminal-2862992888-line-11)">▎</text><text class="terminal-2862992888-r1" x="2903.6" y="288.4" textLength="12.2" clip-path="url(#terminal-2862992888-line-11)">
</text><text class="terminal-2862992888-r9" x="0" y="312.8" textLength="12.2" clip-path="url(#terminal-2862992888-line-12)">▊</text><text class="terminal-2862992888-r3" x="12.2" y="312.8" textLength="2879.2" clip-path="url(#terminal-2862992888-line-12)">▔▔▔▔▔▔▔▔▔▔▔▔▔▔▔▔▔▔▔▔▔▔▔▔▔▔▔▔▔▔▔▔▔▔▔▔▔▔▔▔▔▔▔▔▔▔▔▔▔▔▔▔▔▔▔▔▔▔▔▔▔▔▔▔▔▔▔▔▔▔▔▔▔▔▔▔▔▔▔▔▔▔▔▔▔▔▔▔▔▔▔▔▔▔▔▔▔▔▔▔▔▔▔▔▔▔▔▔▔▔▔▔▔▔▔▔▔▔▔▔▔▔▔▔▔▔▔▔▔▔▔▔▔▔▔▔▔▔▔▔▔▔▔▔▔▔▔▔▔▔▔▔▔▔▔▔▔▔▔▔▔▔▔▔▔▔▔▔▔▔▔▔▔▔▔▔▔▔▔▔▔▔▔▔▔▔▔▔▔▔▔▔▔▔▔▔▔▔▔▔▔▔▔▔▔▔▔▔▔▔▔▔▔▔▔▔▔▔▔▔▔▔▔▔▔▔▔▔▔▔▔▔▔▔▔▔</text><text class="terminal-2862992888-r3" x="2891.4" y="312.8" textLength="12.2" clip-path="url(#terminal-2862992888-line-12)">▎</text><text class="terminal-2862992888-r1" x="2903.6" y="312.8" textLength="12.2" clip-path="url(#terminal-2862992888-line-12)">
</text><text class="terminal-2862992888-r9" x="0" y="337.2" textLength="12.2" clip-path="url(#terminal-2862992888-line-13)">▊</text><text class="terminal-2862992888-r5" x="36.6" y="337.2" textLength="97.6" clip-path="url(#terminal-2862992888-line-13)">uname&#160;-a</text><text class="terminal-2862992888-r3" x="2891.4" y="337.2" textLength="12.2" clip-path="url(#terminal-2862992888-line-13)">▎</text><text class="terminal-2862992888-r1" x="2903.6" y="337.2" textLength="12.2" clip-path="url(#terminal-2862992888-line-13)">
</text><text class="terminal-2862992888-r9" x="0" y="361.6" textLength="12.2" clip-path="url(#terminal-2862992888-line-14)">▊</text><text class="terminal-2862992888-r3" x="12.2" y="361.6" textLength="2879.2" clip-path="url(#terminal-2862992888-line-14)">▁▁▁▁▁▁▁▁▁▁▁▁▁▁▁▁▁▁▁▁▁▁▁▁▁▁▁▁▁▁▁▁▁▁▁▁▁▁▁▁▁▁▁▁▁▁▁▁▁▁▁▁▁▁▁▁▁▁▁▁▁▁▁▁▁▁▁▁▁▁▁▁▁▁▁▁▁▁▁▁▁▁▁▁▁▁▁▁▁▁▁▁▁▁▁▁▁▁▁▁▁▁▁▁▁▁▁▁▁▁▁▁▁▁▁▁▁▁▁▁▁▁▁▁▁▁▁▁▁▁▁▁▁▁▁▁▁▁▁▁▁▁▁▁▁▁▁▁▁▁▁▁▁▁▁▁▁▁▁▁▁▁▁▁▁▁▁▁▁▁▁▁▁▁▁▁▁▁▁▁▁▁▁▁▁▁▁▁▁▁▁▁▁▁▁▁▁▁▁▁▁▁▁▁▁▁▁▁▁▁▁▁▁▁▁▁▁▁▁▁▁▁▁▁▁▁▁▁▁▁▁▁▁▁▁▁</text><text class="terminal-2862992888-r3" x="2891.4" y="361.6" textLength="12.2" clip-path="url(#terminal-2862992888-line-14)">▎</text><text class="terminal-2862992888-r1" x="2903.6" y="361.6" textLength="12.2" clip-path="url(#terminal-2862992888-line-14)">
</text><text class="terminal-2862992888-r1" x="2903.6" y="386" textLength="12.2" clip-path="url(#terminal-2862992888-line-15)">
</text><text class="terminal-2862992888-r1" x="2903.6" y="410.4" textLength="12.2" clip-path="url(#terminal-2862992888-line-16)">
</text><text class="terminal-2862992888-r1" x="2903.6" y="434.8" textLength="12.2" clip-path="url(#terminal-2862992888-line-17)">
</text><text class="terminal-2862992888-r1" x="2903.6" y="459.2" textLength="12.2" clip-path="url(#terminal-2862992888-line-18)">
</text><text class="terminal-2862992888-r1" x="2903.6" y="483.6" textLength="12.2" clip-path="url(#terminal-2862992888-line-19)">
</text><text class="terminal-2862992888-r1" x="2903.6" y="508" textLength="12.2" clip-path="url(#terminal-2862992888-line-20)">
</text><text class="terminal-2862992888-r1" x="2903.6" y="532.4" textLength="12.2" clip-path="url(#terminal-2862992888-line-21)">
</text><text class="terminal-2862992888-r1" x="2903.6" y="556.8" textLength="12.2" clip-path="url(#terminal-2862992888-line-22)">
</text><text class="terminal-2862992888-r1" x="2903.6" y="581.2" textLength="12.2" clip-path="url(#terminal-2862992888-line-23)">
</text><text class="terminal-2862992888-r1" x="2903.6" y="605.6" textLength="12.2" clip-path="url(#terminal-2862992888-line-24)">
</text><text class="terminal-2862992888-r1" x="2903.6" y="630" textLength="12.2" clip-path="url(#terminal-2862992888-line-25)">
</text><text class="terminal-2862992888-r1" x="2903.6" y="654.4" textLength="12.2" clip-path="url(#terminal-2862992888-line-26)">
</text><text class="terminal-2862992888-r1" x="2903.6" y="678.8" textLength="12.2" clip-path="url(#terminal-2862992888-line-27)">
</text><text class="terminal-2862992888-r1" x="2903.6" y="703.2" textLength="12.2" clip-path="url(#terminal-2862992888-line-28)">
</text><text class="terminal-2862992888-r1" x="2903.6" y="727.6" textLength="12.2" clip-path="url(#terminal-2862992888-line-29)">
</text><text class="terminal-2862992888-r1" x="2903.6" y="752" textLength="12.2" clip-path="url(#terminal-2862992888-line-30)">
</text><text class="terminal-2862992888-r1" x="2903.6" y="776.4" textLength="12.2" clip-path="url(#terminal-2862992888-line-31)">
</text><text class="terminal-2862992888-r1" x="2903.6" y="800.8" textLength="12.2" clip-path="url(#terminal-2862992888-line-32)">
</text><text class="terminal-2862992888-r1" x="2903.6" y="825.2" textLength="12.2" clip-path="url(#terminal-2862992888-line-33)">
</text><text class="terminal-2862992888-r1" x="2903.6" y="849.6" textLength="12.2" clip-path="url(#terminal-2862992888-line-34)">
</text><text class="terminal-2862992888-r1" x="2903.6" y="874" textLength="12.2" clip-path="url(#terminal-2862992888-line-35)">
</text><text class="terminal-2862992888-r1" x="2903.6" y="898.4" textLength="12.2" clip-path="url(#terminal-2862992888-line-36)">
</text><text class="terminal-2862992888-r1" x="2903.6" y="922.8" textLength="12.2" clip-path="url(#terminal-2862992888-line-37)">
</text><text class="terminal-2862992888-r1" x="2903.6" y="947.2" textLength="12.2" clip-path="url(#terminal-2862992888-line-38)">
</text><text class="terminal-2862992888-r1" x="2903.6" y="971.6" textLength="12.2" clip-path="url(#terminal-2862992888-line-39)">
</text><text class="terminal-2862992888-r1" x="2903.6" y="996" textLength="12.2" clip-path="url(#terminal-2862992888-line-40)">
</text><text class="terminal-2862992888-r1" x="2903.6" y="1020.4" textLength="12.2" clip-path="url(#terminal-2862992888-line-41)">
</text><text class="terminal-2862992888-r1" x="2903.6" y="1044.8" textLength="12.2" clip-path="url(#terminal-2862992888-line-42)">
</text><text class="terminal-2862992888-r1" x="2903.6" y="1069.2" textLength="12.2" clip-path="url(#terminal-2862992888-line-43)">
</text><text class="terminal-2862992888-r1" x="2903.6" y="1093.6" textLength="12.2" clip-path="url(#terminal-2862992888-line-44)">
</text><text class="terminal-2862992888-r1" x="2903.6" y="1118" textLength="12.2" clip-path="url(#terminal-2862992888-line-45)">
</text><text class="terminal-2862992888-r1" x="2903.6" y="1142.4" textLength="12.2" clip-path="url(#terminal-2862992888-line-46)">
</text><text class="terminal-2862992888-r1" x="2903.6" y="1166.8" textLength="12.2" clip-path="url(#terminal-2862992888-line-47)">
</text><text class="terminal-2862992888-r1" x="2903.6" y="1191.2" textLength="12.2" clip-path="url(#terminal-2862992888-line-48)">
</text><text class="terminal-2862992888-r1" x="2903.6" y="1215.6" textLength="12.2" clip-path="url(#terminal-2862992888-line-49)">
</text><text class="terminal-2862992888-r1" x="2903.6" y="1240" textLength="12.2" clip-path="url(#terminal-2862992888-line-50)">
</text><text class="terminal-2862992888-r14" x="2757.2" y="1264.4" textLength="12.2" clip-path="url(#terminal-2862992888-line-51)">▏</text><text class="terminal-2862992888-r15" x="2769.4" y="1264.4" textLength="24.4" clip-path="url(#terminal-2862992888-line-51)">^p</text><text class="terminal-2862992888-r16" x="2793.8" y="1264.4" textLength="97.6" clip-path="url(#terminal-2862992888-line-51)">&#160;palette</text>
    </g>
    </g>
</svg>
